<svg width="34" height="34" viewBox="0 0 34 34" fill="none" xmlns="http://www.w3.org/2000/svg">
<g clip-path="url(#clip0)">
<path d="M17.0009 33.9999C26.3897 33.9999 34.0009 26.3887 34.0009 16.9999C34.0009 7.61113 26.3897 0 17.0009 0C7.61213 0 0.000999451 7.61113 0.000999451 16.9999C0.000999451 26.3887 7.61213 33.9999 17.0009 33.9999Z" fill="#FFDEDE"/>
<path d="M29.9051 1.65157V28.066C26.7875 31.6984 22.1621 34 16.9997 34C11.8372 34 7.21184 31.6984 4.09427 28.066V1.65157C4.09427 0.739816 4.83324 0.00018311 5.74566 0.00018311H28.2536C29.1654 0.000116704 29.9051 0.739816 29.9051 1.65157Z" fill="#5C5E70"/>
<path d="M28.6044 5.67522V29.4224C28.1784 29.8199 27.7322 30.1967 27.2673 30.5499C24.4148 32.7148 20.8573 33.9999 17.0001 33.9999C13.1428 33.9999 9.58534 32.7148 6.7328 30.5499C6.26789 30.1967 5.82177 29.82 5.39571 29.4224V5.67522C5.39571 5.13122 5.83631 4.69061 6.38031 4.69061H27.6198C27.6795 4.69061 27.7378 4.69619 27.794 4.70655C28.2547 4.78843 28.6044 5.19085 28.6044 5.67522Z" fill="#F9EED7"/>
<path d="M28.6044 5.67522V11.2235C27.7308 11.0021 27.0841 10.2111 27.0841 9.26879C27.0841 10.3825 26.1814 11.2852 25.0677 11.2852C23.9533 11.2852 23.0506 10.3825 23.0506 9.26879C23.0506 9.826 22.8251 10.3297 22.4601 10.6947C22.0951 11.0597 21.5907 11.2852 21.0335 11.2852C19.9198 11.2852 19.0164 10.3825 19.0164 9.26879C19.0164 9.826 18.7909 10.3297 18.4259 10.6947C18.061 11.0598 17.5565 11.2852 17 11.2852C15.8856 11.2852 14.9829 10.3825 14.9829 9.26879C14.9829 9.826 14.7574 10.3297 14.3924 10.6947C14.0274 11.0597 13.523 11.2852 12.9658 11.2852C11.8521 11.2852 10.9487 10.3825 10.9487 9.26879C10.9487 9.826 10.7232 10.3297 10.3582 10.6947C9.99327 11.0597 9.48951 11.2852 8.93229 11.2852C7.81793 11.2852 6.9152 10.3825 6.9152 9.26879C6.9152 9.826 6.68969 10.3297 6.32472 10.6947C6.07218 10.9473 5.75296 11.1333 5.39563 11.2235V5.67522C5.39563 5.13122 5.83624 4.69061 6.38024 4.69061H27.6197C27.6794 4.69061 27.7377 4.69619 27.7939 4.70655C28.2547 4.78843 28.6044 5.19085 28.6044 5.67522Z" fill="#E8DBC4"/>
<path d="M21.3709 3.02522H12.6285C12.2261 3.02522 11.9 2.69903 11.9 2.29674C11.9 1.89439 12.2262 1.56827 12.6285 1.56827H21.3709C21.7732 1.56827 22.0993 1.89446 22.0993 2.29674C22.0993 2.69903 21.7731 3.02522 21.3709 3.02522Z" fill="#494B5B"/>
<path d="M27.7935 3.76578V4.70669C27.7374 4.69626 27.6791 4.69075 27.6194 4.69075H24.6711V3.76578C24.6711 3.29947 25.0492 2.92136 25.5155 2.92136H26.9483C27.4154 2.92136 27.7935 3.29954 27.7935 3.76578Z" fill="#797B89"/>
<path d="M6.91524 6.10352e-05H4.43749C3.57806 6.10352e-05 2.88139 0.696729 2.88139 1.55616V6.33017C2.88139 7.44414 3.78439 8.34713 4.89835 8.34713C6.01232 8.34713 6.91531 7.44414 6.91531 6.33017V6.10352e-05H6.91524Z" fill="#EF4152"/>
<path d="M10.9491 6.10352e-05H6.91521V6.33017C6.91521 7.44414 7.8182 8.34713 8.93216 8.34713C10.0461 8.34713 10.9491 7.44414 10.9491 6.33017V6.10352e-05H10.9491Z" fill="#FFD15C"/>
<path d="M14.9829 6.10352e-05H10.9491V6.33017C10.9491 7.44414 11.8521 8.34713 12.966 8.34713C14.08 8.34713 14.983 7.44414 14.983 6.33017V6.10352e-05H14.9829Z" fill="#EF4152"/>
<path d="M19.0168 6.10352e-05H14.9829V6.33017C14.9829 7.44414 15.8859 8.34713 16.9999 8.34713C18.1138 8.34713 19.0168 7.44414 19.0168 6.33017V6.10352e-05Z" fill="#FFD15C"/>
<path d="M23.0507 6.10352e-05H19.0168V6.33017C19.0168 7.44414 19.9198 8.34713 21.0338 8.34713C22.1477 8.34713 23.0507 7.44414 23.0507 6.33017V6.10352e-05H23.0507Z" fill="#EF4152"/>
<path d="M27.0845 6.10352e-05H23.0507V6.33017C23.0507 7.44414 23.9537 8.34713 25.0676 8.34713C26.1816 8.34713 27.0846 7.44414 27.0846 6.33017V6.10352e-05H27.0845Z" fill="#FFD15C"/>
<path d="M29.5623 6.10352e-05H27.0845V6.33017C27.0845 7.44414 27.9875 8.34713 29.1015 8.34713C30.2154 8.34713 31.1184 7.44414 31.1184 6.33017V1.55616C31.1184 0.696795 30.4216 6.10352e-05 29.5623 6.10352e-05Z" fill="#EF4152"/>
<path d="M8.09346 17.9811C8.09346 17.7147 8.34255 17.4655 8.95316 17.4655C9.65746 17.4655 9.82049 17.7916 10.1299 17.7916C10.5081 17.7916 10.6629 17.3191 10.6629 17.0873C10.6629 16.417 9.4083 16.331 8.95316 16.331C7.87903 16.331 6.75285 16.8209 6.75285 18.1101C6.75285 20.1203 9.47703 19.9399 9.47703 20.98C9.47703 21.3922 9.03922 21.5469 8.6437 21.5469C7.84437 21.5469 7.58691 20.9113 7.1831 20.9113C6.85631 20.9113 6.59819 21.3408 6.59819 21.633C6.59819 22.1999 7.54395 22.7501 8.6694 22.7501C9.91558 22.7501 10.8176 22.0798 10.8176 20.8427C10.8176 18.677 8.09346 18.8401 8.09346 17.9811Z" fill="#FF0000"/>
<path d="M15.6296 16.3824C15.2945 16.3824 14.9593 16.5031 14.9593 16.7862V18.8914H13.2489V16.7862C13.2489 16.5031 12.9138 16.3824 12.5786 16.3824C12.2435 16.3824 11.9083 16.5031 11.9083 16.7862V22.2518C11.9083 22.5266 12.2435 22.664 12.5786 22.664C12.9138 22.664 13.2489 22.5266 13.2489 22.2518V19.9232H14.9593V22.2519C14.9593 22.5267 15.2945 22.6641 15.6296 22.6641C15.9648 22.6641 16.3 22.5267 16.3 22.2519V16.7863C16.3 16.5032 15.9648 16.3824 15.6296 16.3824Z" fill="#FF0000"/>
<path d="M19.6937 16.3824C18.5079 16.3824 17.5885 16.9326 17.5885 18.4106V20.6878C17.5885 22.1658 18.5079 22.716 19.6937 22.716C20.8795 22.716 21.8072 22.1658 21.8072 20.6878V18.4106C21.8072 16.9326 20.8795 16.3824 19.6937 16.3824ZM20.4673 20.6879C20.4673 21.2804 20.1746 21.5469 19.6936 21.5469C19.2121 21.5469 18.929 21.2805 18.929 20.6879V18.4106C18.929 17.8174 19.2121 17.5516 19.6936 17.5516C20.1745 17.5516 20.4673 17.8174 20.4673 18.4106V20.6879Z" fill="#FF0000"/>
<path d="M25.3738 16.3824H23.5947C23.2943 16.3824 23.0965 16.5718 23.0965 16.7862V22.2518C23.0965 22.5266 23.4316 22.664 23.7668 22.664C24.1012 22.664 24.4371 22.5266 24.4371 22.2518V20.3957H25.2878C26.4736 20.3957 27.4013 19.8455 27.4013 18.4022V18.3592C27.4013 16.9153 26.5075 16.3824 25.3738 16.3824ZM26.0607 18.505C26.0607 19.0892 25.7686 19.3647 25.2877 19.3647H24.437V17.5516H25.2877C25.7686 17.5516 26.0607 17.8264 26.0607 18.4106V18.505Z" fill="#FF0000"/>
</g>
<defs>
<clipPath id="clip0">
<rect width="34" height="34" fill="white"/>
</clipPath>
</defs>
</svg>
