<svg width="34" height="34" viewBox="0 0 34 34" fill="none" xmlns="http://www.w3.org/2000/svg">
<path d="M17 34C26.3888 34 34 26.3888 34 17C34 7.61116 26.3888 0 17 0C7.61116 0 0 7.61116 0 17C0 26.3888 7.61116 34 17 34Z" fill="#11B8FF"/>
<path d="M16.2386 7.23766C16.2386 7.23766 11.8783 5.30783 7.82863 9.4636C7.29831 10.0078 7.61699 10.9109 8.36765 11.029C9.47305 11.203 10.8085 11.9402 11.7287 14.1935" fill="#EF4152"/>
<path d="M27.0828 18.0818C27.0828 18.0818 29.0126 22.4422 24.8569 26.4918C24.3127 27.0222 23.4096 26.7035 23.2915 25.9528C23.1175 24.8474 22.3802 23.512 20.1269 22.5918" fill="#FF525D"/>
<path d="M21.8453 16.9896V16.9902L18.4738 21.565C18.2323 21.8932 17.7556 21.9293 17.467 21.6406L12.6792 16.8529C12.3913 16.5649 12.4273 16.0882 12.7555 15.8467L17.3302 12.4752L19.1364 14.2813L21.8453 16.9896Z" fill="#EF4152"/>
<path d="M21.8454 16.9903L18.4738 21.565C18.2323 21.8932 17.7556 21.9293 17.467 21.6407L14.4854 18.6591C14.1968 18.3712 14.2329 17.8938 14.5611 17.6523L19.1365 14.2815L21.8454 16.9903Z" fill="#FF525D"/>
<path d="M17.3816 16.9389C18.967 18.5243 19.8803 20.5258 20.1269 22.5919C22.6624 21.6265 25.0401 20.1245 27.0828 18.0819C31.5867 13.578 33.4715 7.44752 32.739 1.58153C26.8729 0.849068 20.7426 2.73388 16.2387 7.23775C14.196 9.2804 12.694 11.6582 11.7287 14.1936C13.7946 14.4402 15.7962 15.3536 17.3816 16.9389Z" fill="#F9EED7"/>
<path d="M18.8661 9.86461C17.2143 11.5165 15.7779 13.2484 14.5768 14.9898C13.6665 14.5745 12.704 14.3098 11.7287 14.1936C12.6945 11.6588 14.1959 9.2805 16.2389 7.23738C20.7424 2.73391 26.8731 0.849501 32.7391 1.58136C28.4715 2.44803 23.3696 5.36121 18.8661 9.86461Z" fill="#E8DBC4"/>
<path d="M24.444 14.1329C26.7946 14.1329 28.7002 12.2273 28.7002 9.87666C28.7002 7.52601 26.7946 5.62042 24.444 5.62042C22.0933 5.62042 20.1877 7.52601 20.1877 9.87666C20.1877 12.2273 22.0933 14.1329 24.444 14.1329Z" fill="#FF525D"/>
<path d="M24.4439 12.5141C25.9006 12.5141 27.0814 11.3333 27.0814 9.87669C27.0814 8.42006 25.9006 7.23923 24.4439 7.23923C22.9873 7.23923 21.8065 8.42006 21.8065 9.87669C21.8065 11.3333 22.9873 12.5141 24.4439 12.5141Z" fill="#5C5E70"/>
<path d="M33.1105 18.5926H32.1978C31.7528 18.5926 31.3923 18.232 31.3923 17.7871V16.8744C31.3923 16.675 31.2466 16.497 31.0481 16.4782C30.8205 16.4565 30.629 16.6348 30.629 16.858V17.7872C30.629 18.2321 30.2683 18.5927 29.8235 18.5927H28.9107C28.7114 18.5927 28.5334 18.7384 28.5145 18.9369C28.4928 19.1644 28.6712 19.356 28.8944 19.356H29.8235C30.2685 19.356 30.6291 19.7166 30.6291 20.1615V21.0742C30.6291 21.2736 30.7747 21.4515 30.9732 21.4704C31.2008 21.4921 31.3923 21.3137 31.3923 21.0906V20.1614C31.3923 19.7165 31.753 19.3559 32.1978 19.3559H33.127C33.3501 19.3559 33.5285 19.1644 33.5068 18.9368C33.4878 18.7384 33.3098 18.5926 33.1105 18.5926Z" fill="#FFD15C"/>
<path d="M12.8155 2.7383H11.9028C11.4579 2.7383 11.0973 2.37765 11.0973 1.9328V1.02004C11.0973 0.820692 10.9516 0.642723 10.7531 0.623863C10.5255 0.602149 10.334 0.780516 10.334 1.00371V1.93286C10.334 2.37779 9.97336 2.73837 9.5285 2.73837H8.61575C8.41639 2.73837 8.23843 2.88407 8.21957 3.08255C8.19785 3.31013 8.37622 3.50164 8.59941 3.50164H9.52857C9.97349 3.50164 10.3341 3.8623 10.3341 4.30715V5.21991C10.3341 5.41926 10.4798 5.59723 10.6783 5.61609C10.9058 5.6378 11.0973 5.45943 11.0973 5.23624V4.30715C11.0973 3.86223 11.458 3.50164 11.9029 3.50164H12.832C13.0551 3.50164 13.2336 3.31013 13.2119 3.08255C13.1929 2.88407 13.0149 2.7383 12.8155 2.7383Z" fill="#FFD15C"/>
<path d="M8.7566 15.4356H7.84385C7.39892 15.4356 7.03834 15.075 7.03834 14.6301V13.7174C7.03834 13.518 6.89264 13.34 6.69416 13.3212C6.46658 13.2995 6.27507 13.4778 6.27507 13.701V14.6302C6.27507 15.0751 5.91441 15.4357 5.46956 15.4357H4.55674C4.35739 15.4357 4.17942 15.5814 4.16056 15.7799C4.13885 16.0075 4.31721 16.199 4.5404 16.199H5.46956C5.91448 16.199 6.27507 16.5596 6.27507 17.0045V17.9172C6.27507 18.1166 6.42076 18.2946 6.61925 18.3134C6.84682 18.3351 7.03834 18.1568 7.03834 17.9336V17.0044C7.03834 16.5595 7.39899 16.1989 7.84385 16.1989H8.773C8.99613 16.1989 9.17456 16.0074 9.15284 15.7798C9.13392 15.5813 8.95595 15.4356 8.7566 15.4356Z" fill="#FFD15C"/>
<path d="M16.3533 33.9875C9.93701 33.7475 4.43041 29.9526 1.7472 24.514C0.741077 22.4761 0.131799 20.2078 0.0194397 17.8098C0.401076 17.9784 0.759139 18.2198 1.07205 18.5328C1.35447 18.8152 1.57786 19.1351 1.74301 19.4751C3.50683 19.0137 5.46223 19.4731 6.84441 20.8552C7.4675 21.4791 7.90259 22.2194 8.15095 23.0055L11.6439 19.5118C12.0297 19.126 12.6542 19.126 13.04 19.5118L14.808 21.2805C15.1938 21.6663 15.1938 22.2908 14.808 22.6766L11.315 26.1695C12.1012 26.418 12.8416 26.853 13.4653 27.4761C14.8475 28.8583 15.3069 30.8137 14.8454 32.5775C15.1854 32.7426 15.5053 32.966 15.7877 33.2484C16.0133 33.4741 16.202 33.7232 16.3533 33.9875Z" fill="#F9EED7"/>
<path d="M13.04 19.5118L7.51883 25.0331C7.51883 25.0331 6.90683 23.5884 3.88913 23.5884C2.94131 23.5884 2.24949 23.9783 1.74713 24.514C0.741076 22.4761 0.131799 20.2078 0.0194397 17.8098C0.401076 17.9784 0.759139 18.2198 1.07205 18.5328C1.35447 18.8152 1.57786 19.1351 1.74301 19.4751C3.50683 19.0137 5.46223 19.4731 6.84441 20.8552C7.4675 21.4791 7.90259 22.2194 8.15095 23.0055L11.6439 19.5118C12.0297 19.1261 12.6542 19.1261 13.04 19.5118Z" fill="#E8DBC4"/>
</svg>
