<svg width="34" height="34" viewBox="0 0 34 34" fill="none" xmlns="http://www.w3.org/2000/svg">
<path d="M17 34C26.3888 34 34 26.3888 34 17C34 7.61116 26.3888 0 17 0C7.61116 0 0 7.61116 0 17C0 26.3888 7.61116 34 17 34Z" fill="#11B8FF"/>
<path d="M17.7542 25.6221L19.7993 29.0518C20.2983 29.8895 19.8534 30.9712 18.9096 31.2152L16.8394 31.7504L12.763 29.3489L10.6466 23.768L17.7542 25.6221Z" fill="#FF525D"/>
<path d="M18.6433 33.9209C18.1027 33.9736 17.5546 33.9999 17.0002 33.9999C15.2731 33.9999 13.6058 33.7425 12.0355 33.263C11.3159 33.0438 10.6158 32.778 9.94074 32.4685L5.83989 25.4742L7.57734 25.6581L14.1296 26.3513L18.6433 33.9209Z" fill="#5C5E70"/>
<path d="M12.0355 33.263C11.3159 33.0438 10.6158 32.778 9.94074 32.4686L5.83989 25.4742L7.57734 25.6581L12.0355 33.263Z" fill="#494B5B"/>
<path d="M31.3974 26.0425C31.0311 26.6261 30.63 27.1853 30.1956 27.7176C25.5383 25.6643 20.3044 25.2259 15.3376 26.5102L6.56914 28.7771C6.00781 28.9221 5.44435 28.972 4.8955 28.936C3.50708 27.5288 2.36284 25.8794 1.53017 24.058C0.547621 21.9084 0.000167847 19.518 0.000167847 16.9999C0.000167847 15.7003 0.145863 14.4346 0.422047 13.219C0.967441 12.802 1.60375 12.4849 2.31011 12.3024L11.0779 10.0355C16.1974 8.71155 20.6777 5.65016 23.769 1.40089C23.8218 1.32824 23.8741 1.25533 23.9262 1.18195C24.2285 0.755687 24.892 0.880266 25.0228 1.38615L25.2102 2.11071L30.2408 21.5677L31.3974 26.0425Z" fill="#FFD15C"/>
<path d="M29.4747 20.4305L26.7117 9.74405C26.7644 9.74684 26.8171 9.75029 26.8699 9.75448C29.0896 9.92587 31.0748 11.3802 31.8582 13.5486C31.9193 13.7186 31.9734 13.8928 32.0199 14.0718C32.6687 16.5815 31.5661 19.1322 29.4747 20.4305Z" fill="#EDBB4C"/>
<path d="M31.8582 13.5486C31.8693 15.5588 30.8236 17.435 29.1278 18.4876L26.8699 9.75449C29.0896 9.92588 31.0748 11.3802 31.8582 13.5486Z" fill="#FFD15C"/>
<path d="M31.3975 26.0425C31.0311 26.6261 30.63 27.1853 30.1957 27.7176C25.5383 25.6643 20.3045 25.2259 15.3377 26.5102L6.56919 28.7771C6.00786 28.9221 5.4444 28.972 4.89556 28.936C3.50713 27.5288 2.36289 25.8794 1.53022 24.058V24.0567C1.53022 24.0567 2.42876 25.6227 5.20428 25.2758C7.9798 24.9289 17.9716 20.835 23.2451 21.8064C25.9764 22.3096 30.2408 21.5677 30.2408 21.5677L31.3975 26.0425Z" fill="#EDBB4C"/>
<path d="M31.3975 26.0425C31.0311 26.6261 30.63 27.1853 30.1957 27.7176L30.195 27.7182C29.422 27.3768 28.6331 27.0805 27.8323 26.8294L26.5861 22.0083L21.8525 3.70109C22.5388 2.98085 23.1792 2.21273 23.769 1.40091C23.8219 1.32826 23.8744 1.25521 23.9265 1.18184C24.2289 0.75584 24.8921 0.880684 25.0228 1.38637L25.2101 2.11073L30.2407 21.5678L31.3975 26.0425Z" fill="#C69A6A"/>
<path d="M31.3975 26.0425C31.0311 26.6261 30.63 27.1853 30.1957 27.7176L30.195 27.7182C29.422 27.3768 28.6331 27.0805 27.8323 26.8294L26.5862 22.0083C28.529 21.9119 30.2408 21.5677 30.2408 21.5677L31.3975 26.0425Z" fill="#B58657"/>
</svg>
